<svg width="39" height="39" viewBox="0 0 39 39" fill="none" xmlns="http://www.w3.org/2000/svg">
<path d="M37.6912 3.24534L34.9574 3.24524V1.09212C34.9574 0.599175 34.4834 0.180361 33.8426 0.107429C33.7307 0.0946405 31.0674 -0.199688 27.8603 0.244302C24.2851 0.739246 21.4338 1.95982 19.4999 3.80502C17.566 1.95982 14.7146 0.739246 11.1395 0.244302C7.93234 -0.199588 5.26905 0.0946405 5.15731 0.107429C4.5165 0.180461 4.04246 0.599275 4.04246 1.09212V3.24524H1.30866C0.586048 3.24524 0 3.69112 0 4.24102V23.0042C0 23.3266 0.20511 23.629 0.550594 23.8159C0.896078 24.0027 1.339 24.0507 1.73911 23.9446C1.83733 23.9187 11.6442 21.3722 18.9568 23.9101C19.3019 24.0299 19.6981 24.0299 20.0432 23.9101C27.3354 21.3794 37.1632 23.9189 37.2609 23.9446C37.4011 23.9817 37.5464 24 37.6911 24C37.9593 24 38.2249 23.9373 38.4494 23.816C38.7949 23.6291 39 23.3267 39 23.0043V4.24112C38.9999 3.69122 38.4139 3.24534 37.6912 3.24534ZM2.61746 21.6719V5.2367H4.04246V18.4971C4.04246 18.7864 4.20883 19.0612 4.49654 19.2503C4.78425 19.4394 5.16689 19.5242 5.54297 19.482C5.61519 19.474 11.3005 18.8801 15.4542 21.0484C10.3376 20.3827 5.21666 21.1527 2.61746 21.6719ZM18.1913 20.1504C16.3618 18.8928 13.9789 18.0424 11.1395 17.6494C9.77308 17.4601 8.50538 17.405 7.49165 17.405C7.19068 17.405 6.91204 17.4099 6.66005 17.4176V2.00648H6.65992C9.17521 1.92016 15.294 2.12477 18.1913 5.86162V20.1504ZM20.8086 5.86172C23.6955 2.14085 29.8239 1.92695 32.34 2.00898V17.4176C31.2392 17.3838 29.6323 17.404 27.8603 17.6494C25.021 18.0424 22.638 18.8927 20.8086 20.1504V5.86172ZM23.5413 21.049C27.6956 18.8794 33.3839 19.4739 33.4548 19.4819C33.8318 19.5249 34.2142 19.4406 34.5028 19.2516C34.7914 19.0624 34.9574 18.787 34.9574 18.4971V5.2368H36.3824V21.6719C33.7824 21.1525 28.6594 20.3822 23.5413 21.049Z" fill="white"/>
</svg>
