<svg width="39" height="39" viewBox="0 0 39 39" fill="none" xmlns="http://www.w3.org/2000/svg">
<path d="M36.7147 20.8395V17.2152C36.7147 16.5842 36.2031 16.0726 35.5721 16.0726C33.2117 16.0726 31.0111 16.2718 28.932 16.6786C27.72 15.5082 26.2425 14.659 24.6425 14.1948C26.3872 12.7264 27.4979 10.5279 27.4979 8.07438C27.4979 3.62212 23.91 0 19.4999 0C15.0898 0 11.5019 3.62212 11.5019 8.07438C11.5019 10.5279 12.6126 12.7264 14.3573 14.1948C12.7573 14.659 11.2798 15.5082 10.0678 16.6785C7.98874 16.2718 5.78814 16.0725 3.42773 16.0725C2.79672 16.0725 2.28515 16.5841 2.28515 17.2151V20.8395C0.95527 21.3111 0 22.5812 0 24.0707V26.3559C0 27.8455 0.95527 29.1155 2.28515 29.5872V33.2115C2.28515 33.8426 2.79672 34.3541 3.42773 34.3541C9.4018 34.3541 14.3075 35.7697 18.8662 38.8088C19.2482 39.0634 19.7514 39.064 20.1338 38.8088C24.6925 35.7697 29.5981 34.3541 35.5723 34.3541C36.2033 34.3541 36.7149 33.8426 36.7149 33.2115V29.5872C38.0447 29.1155 39 27.8455 39 26.3559V24.0707C38.9999 22.5812 38.0446 21.3112 36.7147 20.8395ZM13.787 8.07438C13.787 4.88218 16.3498 2.2852 19.4999 2.2852C22.65 2.2852 25.2128 4.88218 25.2128 8.07438C25.2128 11.2245 22.65 13.7874 19.4999 13.7874C16.3498 13.7874 13.787 11.2245 13.787 8.07438ZM3.42765 27.4986C2.79764 27.4986 2.28508 26.986 2.28508 26.356V24.0708C2.28508 23.4408 2.79764 22.9282 3.42765 22.9282C4.05767 22.9282 4.57023 23.4408 4.57023 24.0708V26.356C4.57023 26.986 4.05767 27.4986 3.42765 27.4986ZM18.3573 35.808C14.2095 33.4359 9.75859 32.237 4.57023 32.0855V29.5873C5.90011 29.1156 6.85538 27.8456 6.85538 26.356V24.0708C6.85538 22.5812 5.90011 21.3112 4.57023 20.8395V18.3739C9.93889 18.528 14.2542 19.7923 18.3573 22.4047V35.808ZM19.4999 20.4251C17.391 19.0944 15.1959 18.0812 12.8525 17.3692C14.1401 16.5324 15.6559 16.0726 17.2147 16.0726H21.785C23.3439 16.0726 24.8596 16.5324 26.1472 17.3692C23.8039 18.0812 21.6087 19.0944 19.4999 20.4251ZM34.4295 32.0855C29.2413 32.237 24.7902 33.4362 20.6425 35.8081V22.4057C24.7456 19.793 29.0607 18.528 34.4295 18.3739V20.8395C33.0997 21.3112 32.1444 22.5812 32.1444 24.0708V26.356C32.1444 27.8456 33.0997 29.1156 34.4295 29.5873V32.0855ZM36.7147 26.356C36.7147 26.986 36.2021 27.4986 35.5721 27.4986C34.9421 27.4986 34.4295 26.986 34.4295 26.356V24.0708C34.4295 23.4408 34.9421 22.9282 35.5721 22.9282C36.2021 22.9282 36.7147 23.4408 36.7147 24.0708V26.356Z" fill="white"/>
</svg>
