<svg width="39" height="39" viewBox="0 0 39 39" fill="none" xmlns="http://www.w3.org/2000/svg">
<path d="M38.645 12.1719L30.6252 19.8997L28.9799 18.1572L35.0492 12.3084C35.6362 11.7427 35.6522 10.8094 35.0861 10.2228L29.6678 4.60768C29.3934 4.32484 29.0242 4.16374 28.6304 4.15759C28.2403 4.14898 27.8625 4.29779 27.5795 4.56956L22.7962 9.17747L26.9494 13.4755C27.2891 13.8309 27.262 14.4162 26.9064 14.7618C26.6566 15.0004 26.2911 15.0754 25.981 14.9745L19.956 8.59087L27.8392 0.987276C28.3179 0.531035 29.0858 0.55686 29.5448 1.03278L38.6573 10.4724C39.1163 10.9471 39.1163 11.7132 38.645 12.1719ZM11.4194 35.0823C11.1401 35.3541 10.7611 35.5029 10.371 35.4931C9.9784 35.4857 9.60554 35.3246 9.33235 35.0454L3.91407 29.4279C3.34923 28.8413 3.36399 27.9165 3.95098 27.3459L6.44292 29.9333C6.78626 30.2887 7.34987 30.2986 7.70551 29.9592C8.06115 29.6197 8.06853 29.0577 7.72397 28.7011L5.23572 26.11L5.899 25.4693L8.39095 28.0567C8.73182 28.4097 9.29543 28.422 9.65353 28.0825C10.0079 27.737 10.0166 27.1774 9.67199 26.8196L7.18128 24.2359L7.8458 23.5952L10.3353 26.1801C10.6786 26.533 11.2447 26.5453 11.5979 26.2059C11.956 25.8641 11.9621 25.3033 11.62 24.9454L9.12807 22.3605L9.79136 21.7198L12.2833 24.3023C12.6254 24.6601 13.189 24.6712 13.5459 24.3281C13.6776 24.2002 13.7637 24.0403 13.7982 23.8755L9.18468 18.9811L0.356435 27.4824C-0.116111 27.9411 -0.116111 28.7097 0.340437 29.1832L9.45294 38.629C9.91072 39.1036 10.6811 39.1295 11.1536 38.6683L19.8502 30.2912L18.2061 28.5486L11.4194 35.0823ZM27.342 11.8731C26.1926 10.6864 26.2271 8.78517 27.4183 7.64027C28.6034 6.4929 30.5046 6.52734 31.6503 7.71528C32.7997 8.90446 32.7591 10.8057 31.574 11.9481C30.3914 13.0955 28.4901 13.061 27.342 11.8731ZM28.628 10.6335C29.0907 11.1082 29.8536 11.1217 30.336 10.6618C30.8123 10.2006 30.8258 9.43572 30.3631 8.95857C29.9016 8.48142 29.1362 8.46544 28.6587 8.9266C28.1813 9.38776 28.1665 10.1527 28.628 10.6335ZM33.4679 25.9674L25.6253 33.3521L8.14729 14.8196L15.9923 7.4349L33.4679 25.9674ZM17.3078 12.6023C17.3115 12.4253 17.2475 12.2506 17.122 12.1203L16.2679 11.2176C16.0144 10.9483 15.5874 10.9348 15.3155 11.1894L14.8528 11.6235C14.5808 11.8768 14.5697 12.3072 14.8232 12.5753L15.6723 13.4841C15.7991 13.6144 15.9664 13.6931 16.1473 13.6944C16.3258 13.7017 17.0937 13.0758 17.0937 13.0758C17.2241 12.9516 17.3004 12.7819 17.3078 12.6023ZM29.4488 26.1777C29.7232 25.9219 29.733 25.4939 29.4758 25.2234L19.657 14.8134C19.5339 14.6806 19.3666 14.6044 19.1844 14.6007C19.0085 14.5946 18.8325 14.6622 18.7033 14.7827L18.2393 15.2205C17.9674 15.4751 17.9551 15.9006 18.211 16.1723L28.0287 26.5835C28.1567 26.7138 28.3216 26.7925 28.5049 26.7974C28.6846 26.8036 28.8581 26.736 28.9898 26.613L29.4488 26.1777ZM7.35356 13.9748L15.1961 6.5876L13.1706 4.44044L5.32924 11.8288L7.35356 13.9748ZM1.83314 8.11742C1.40613 7.66486 1.1797 7.06843 1.19693 6.44863C1.21662 5.83006 1.47873 5.24716 1.93036 4.82289L6.37524 0.638024C7.31049 -0.249861 8.7872 -0.20436 9.67199 0.732716L12.4273 3.65339L4.58474 11.0381L1.83314 8.11742ZM3.23232 6.51012L4.67211 8.03994L9.42587 3.56362L7.98239 2.03626L3.23232 6.51012ZM37.4464 36.5162C37.5805 36.9417 37.4587 37.4053 37.1363 37.7103C36.8114 38.0165 36.3413 38.1063 35.9266 37.9477L26.6184 34.3986L34.4523 27.0114L37.4464 36.5162ZM34.9594 33.3262L33.7817 29.589L29.2273 33.8821L32.892 35.2791L34.9594 33.3262Z" fill="white"/>
</svg>
